<mxfile host="app.diagrams.net" modified="2024-06-06T08:52:17.540Z" agent="Mozilla/5.0 (Windows NT 10.0; Win64; x64) AppleWebKit/537.36 (KHTML, like Gecko) Chrome/125.0.0.0 Safari/537.36" etag="FbdRKvWQoi7shdK4f4jz" version="24.4.13" type="github">
  <diagram name="第 1 页" id="oS-gPkYAhSx5hzGPmh8H">
    <mxGraphModel dx="1434" dy="756" grid="1" gridSize="10" guides="1" tooltips="1" connect="1" arrows="1" fold="1" page="1" pageScale="1" pageWidth="827" pageHeight="1169" math="0" shadow="0">
      <root>
        <mxCell id="0" />
        <mxCell id="1" parent="0" />
        <mxCell id="_Y9gN1070Jqy3G80zltB-14" style="edgeStyle=orthogonalEdgeStyle;rounded=0;orthogonalLoop=1;jettySize=auto;html=1;exitX=0.5;exitY=0;exitDx=0;exitDy=0;entryX=0;entryY=0.5;entryDx=0;entryDy=0;strokeWidth=2;curved=1;endArrow=none;endFill=0;" edge="1" parent="1" source="_Y9gN1070Jqy3G80zltB-5" target="_Y9gN1070Jqy3G80zltB-6">
          <mxGeometry relative="1" as="geometry" />
        </mxCell>
        <mxCell id="_Y9gN1070Jqy3G80zltB-18" style="edgeStyle=orthogonalEdgeStyle;rounded=0;orthogonalLoop=1;jettySize=auto;html=1;exitX=1;exitY=0.5;exitDx=0;exitDy=0;entryX=0;entryY=0.5;entryDx=0;entryDy=0;strokeWidth=2;endArrow=none;endFill=0;" edge="1" parent="1" source="_Y9gN1070Jqy3G80zltB-5" target="_Y9gN1070Jqy3G80zltB-9">
          <mxGeometry relative="1" as="geometry" />
        </mxCell>
        <mxCell id="_Y9gN1070Jqy3G80zltB-5" value="&lt;font style=&quot;font-size: 18px;&quot;&gt;&lt;b&gt;基于高德开放平台的中国在线中国高校地图信息系统&lt;/b&gt;&lt;/font&gt;" style="rounded=1;arcSize=10;whiteSpace=wrap;html=1;align=center;strokeWidth=4;fillColor=#d5e8d4;strokeColor=#82b366;" vertex="1" parent="1">
          <mxGeometry x="10" y="320" width="160" height="120" as="geometry" />
        </mxCell>
        <mxCell id="_Y9gN1070Jqy3G80zltB-6" value="&lt;b style=&quot;font-size: 16px;&quot;&gt;1 绪论&lt;/b&gt;" style="rounded=1;arcSize=10;whiteSpace=wrap;html=1;align=center;strokeWidth=3;" vertex="1" parent="1">
          <mxGeometry x="300" y="40" width="100" height="40" as="geometry" />
        </mxCell>
        <mxCell id="_Y9gN1070Jqy3G80zltB-7" value="&lt;b style=&quot;font-size: 16px;&quot;&gt;5 系统实现&lt;/b&gt;" style="rounded=1;arcSize=10;whiteSpace=wrap;html=1;align=center;strokeWidth=3;" vertex="1" parent="1">
          <mxGeometry x="300" y="460" width="100" height="40" as="geometry" />
        </mxCell>
        <mxCell id="_Y9gN1070Jqy3G80zltB-8" value="&lt;b style=&quot;font-size: 16px;&quot;&gt;2 相关技术综述&lt;/b&gt;" style="rounded=1;arcSize=10;whiteSpace=wrap;html=1;align=center;strokeWidth=3;" vertex="1" parent="1">
          <mxGeometry x="300" y="150" width="130" height="40" as="geometry" />
        </mxCell>
        <mxCell id="_Y9gN1070Jqy3G80zltB-9" value="&lt;b style=&quot;font-size: 16px;&quot;&gt;4 在线中国高校地图信息系统设计&lt;/b&gt;" style="rounded=1;arcSize=10;whiteSpace=wrap;html=1;align=center;strokeWidth=3;" vertex="1" parent="1">
          <mxGeometry x="300" y="355" width="150" height="50" as="geometry" />
        </mxCell>
        <mxCell id="_Y9gN1070Jqy3G80zltB-10" value="&lt;b style=&quot;font-size: 16px;&quot;&gt;3 系统需求分析与可行性分析&lt;/b&gt;" style="rounded=1;arcSize=10;whiteSpace=wrap;html=1;align=center;strokeWidth=3;" vertex="1" parent="1">
          <mxGeometry x="300" y="250" width="130" height="50" as="geometry" />
        </mxCell>
        <mxCell id="_Y9gN1070Jqy3G80zltB-12" value="&lt;b style=&quot;font-size: 16px;&quot;&gt;6 系统测试&lt;/b&gt;" style="rounded=1;arcSize=10;whiteSpace=wrap;html=1;align=center;strokeWidth=3;" vertex="1" parent="1">
          <mxGeometry x="300" y="570" width="100" height="40" as="geometry" />
        </mxCell>
        <mxCell id="_Y9gN1070Jqy3G80zltB-13" value="&lt;b style=&quot;font-size: 16px;&quot;&gt;7 结论&lt;/b&gt;" style="rounded=1;arcSize=10;whiteSpace=wrap;html=1;align=center;strokeWidth=3;" vertex="1" parent="1">
          <mxGeometry x="300" y="670" width="100" height="40" as="geometry" />
        </mxCell>
        <mxCell id="_Y9gN1070Jqy3G80zltB-16" style="edgeStyle=orthogonalEdgeStyle;rounded=0;orthogonalLoop=1;jettySize=auto;html=1;exitX=0.5;exitY=0;exitDx=0;exitDy=0;entryX=0;entryY=0.5;entryDx=0;entryDy=0;strokeWidth=2;curved=1;endArrow=none;endFill=0;" edge="1" parent="1" source="_Y9gN1070Jqy3G80zltB-5" target="_Y9gN1070Jqy3G80zltB-8">
          <mxGeometry relative="1" as="geometry">
            <mxPoint x="120" y="310" as="sourcePoint" />
            <mxPoint x="310" y="70" as="targetPoint" />
          </mxGeometry>
        </mxCell>
        <mxCell id="_Y9gN1070Jqy3G80zltB-17" style="edgeStyle=orthogonalEdgeStyle;rounded=0;orthogonalLoop=1;jettySize=auto;html=1;exitX=0.5;exitY=0;exitDx=0;exitDy=0;entryX=0;entryY=0.5;entryDx=0;entryDy=0;strokeWidth=2;curved=1;endArrow=none;endFill=0;" edge="1" parent="1" source="_Y9gN1070Jqy3G80zltB-5" target="_Y9gN1070Jqy3G80zltB-10">
          <mxGeometry relative="1" as="geometry">
            <mxPoint x="120" y="310" as="sourcePoint" />
            <mxPoint x="310" y="180" as="targetPoint" />
          </mxGeometry>
        </mxCell>
        <mxCell id="_Y9gN1070Jqy3G80zltB-19" style="edgeStyle=orthogonalEdgeStyle;rounded=0;orthogonalLoop=1;jettySize=auto;html=1;entryX=0;entryY=0.5;entryDx=0;entryDy=0;strokeWidth=2;curved=1;endArrow=none;endFill=0;exitX=0.5;exitY=1;exitDx=0;exitDy=0;" edge="1" parent="1" source="_Y9gN1070Jqy3G80zltB-5" target="_Y9gN1070Jqy3G80zltB-7">
          <mxGeometry relative="1" as="geometry">
            <mxPoint x="100" y="460" as="sourcePoint" />
            <mxPoint x="310" y="290" as="targetPoint" />
          </mxGeometry>
        </mxCell>
        <mxCell id="_Y9gN1070Jqy3G80zltB-20" style="edgeStyle=orthogonalEdgeStyle;rounded=0;orthogonalLoop=1;jettySize=auto;html=1;entryX=0;entryY=0.5;entryDx=0;entryDy=0;strokeWidth=2;curved=1;endArrow=none;endFill=0;exitX=0.5;exitY=1;exitDx=0;exitDy=0;" edge="1" parent="1" source="_Y9gN1070Jqy3G80zltB-5" target="_Y9gN1070Jqy3G80zltB-12">
          <mxGeometry relative="1" as="geometry">
            <mxPoint x="100" y="510" as="sourcePoint" />
            <mxPoint x="310" y="490" as="targetPoint" />
          </mxGeometry>
        </mxCell>
        <mxCell id="_Y9gN1070Jqy3G80zltB-21" style="edgeStyle=orthogonalEdgeStyle;rounded=0;orthogonalLoop=1;jettySize=auto;html=1;entryX=0;entryY=0.5;entryDx=0;entryDy=0;strokeWidth=2;curved=1;endArrow=none;endFill=0;exitX=0.5;exitY=1;exitDx=0;exitDy=0;" edge="1" parent="1" source="_Y9gN1070Jqy3G80zltB-5" target="_Y9gN1070Jqy3G80zltB-13">
          <mxGeometry relative="1" as="geometry">
            <mxPoint x="80" y="520" as="sourcePoint" />
            <mxPoint x="310" y="600" as="targetPoint" />
          </mxGeometry>
        </mxCell>
      </root>
    </mxGraphModel>
  </diagram>
</mxfile>
